<svg id="svg" version="1.1" xmlns="http://www.w3.org/2000/svg" xmlns:xlink="http://www.w3.org/1999/xlink" width="400" height="298.7341772151899" viewBox="0, 0, 400,298.7341772151899"><g id="svgg"><path id="path0" d="M283.544 3.222 C 276.655 6.648,267.011 23.626,269.587 27.794 C 273.009 33.331,290.723 30.828,291.596 24.684 C 292.808 16.150,307.236 16.446,308.449 25.030 C 309.100 29.631,305.413 35.065,292.989 47.815 C 257.489 84.245,258.103 88.608,298.734 88.608 L 329.114 88.608 329.114 79.747 L 329.114 70.886 313.291 70.811 L 297.468 70.735 308.303 61.317 C 345.449 29.026,325.550 -17.666,283.544 3.222 M352.532 27.311 C 337.837 49.031,334.177 56.332,334.177 63.929 L 334.177 73.418 351.899 73.418 L 369.620 73.418 369.620 81.013 C 369.620 88.186,370.183 88.608,379.747 88.608 C 389.311 88.608,389.873 88.186,389.873 81.013 C 389.873 75.105,390.999 73.418,394.937 73.418 C 399.156 73.418,400.000 71.730,400.000 63.291 C 400.000 54.852,399.156 53.165,394.937 53.165 C 390.195 53.165,389.873 51.477,389.873 26.582 L 389.873 0.000 380.380 0.091 C 371.170 0.179,370.338 0.993,352.532 27.311 M368.750 52.347 C 362.338 58.759,357.503 51.280,362.733 43.038 L 368.354 34.177 369.166 42.648 C 369.612 47.308,369.425 51.672,368.750 52.347 M126.341 45.311 C 93.549 55.802,67.052 81.376,54.437 114.711 C 50.921 124.001,47.630 128.012,40.564 131.616 C -5.596 155.165,-14.422 224.040,23.826 262.224 C 50.824 289.178,105.156 299.396,100.813 276.704 C 100.111 273.040,96.490 271.830,82.249 270.503 C 9.570 263.732,-9.651 172.506,55.419 143.163 C 62.641 139.907,65.680 136.789,66.725 131.566 C 76.558 82.399,134.991 46.532,184.566 59.232 C 222.361 68.915,243.941 91.012,259.430 135.891 C 259.996 137.530,265.433 141.071,271.513 143.760 C 284.834 149.653,300.261 166.717,306.336 182.278 C 309.868 191.326,312.019 193.671,316.784 193.671 C 337.272 193.671,312.996 146.322,284.855 131.392 C 278.564 128.055,273.417 124.184,273.416 122.789 C 273.411 116.496,257.927 88.770,248.481 78.137 C 219.435 45.446,168.612 31.786,126.341 45.311 M160.935 173.604 C 158.750 175.789,156.962 179.831,156.962 182.585 C 156.962 189.513,151.362 199.677,140.277 212.867 C 103.767 256.311,132.598 314.511,181.481 296.041 C 215.580 283.158,219.723 246.749,191.111 211.399 C 181.082 199.008,174.684 186.764,174.684 179.962 C 174.684 172.543,166.008 168.531,160.935 173.604 M265.218 172.959 C 263.223 174.604,260.239 180.720,258.589 186.550 C 256.939 192.380,251.071 202.865,245.551 209.849 C 217.052 245.902,217.922 277.051,247.867 292.848 C 298.715 319.673,334.174 259.312,294.974 212.658 C 285.066 200.865,279.801 190.905,277.392 179.393 C 275.755 171.572,270.360 168.720,265.218 172.959 " stroke="none" fill="#000000" fill-rule="evenodd"></path></g></svg>