<svg xmlns="http://www.w3.org/2000/svg" width="100" height="100"><g transform="translate(0 0)"><g class="nc-icon-wrapper" stroke="none" fill="#ffffff"><path fill-rule="evenodd" clip-rule="evenodd" d="M64.141 44.556a2 2 0 1 1-2.828-2.828l2.828-2.828a2 2 0 1 1 2.828 2.828l-2.828 2.828zm-7.221 7.313c-1.385-2.389-3.961-4-6.92-4s-5.537 1.611-6.92 4h-4.381c1.648-4.658 6.078-8 11.301-8 5.221 0 9.652 3.342 11.301 8H56.92zM50 39.871a2 2 0 0 1-2-2v-4a2 2 0 0 1 4 0v4a2 2 0 0 1-2 2zm-14.141 4.685l-2.828-2.828a2 2 0 1 1 2.828-2.828l2.828 2.828a2 2 0 1 1-2.828 2.828zM40 55.867h19.998a2 2 0 0 1 0 4H40a2 2 0 0 1 0-4z"></path></g></g></svg>