<?xml version="1.0" standalone="no"?>
<!DOCTYPE svg PUBLIC "-//W3C//DTD SVG 20010904//EN" "http://www.w3.org/TR/2001/REC-SVG-20010904/DTD/svg10.dtd">
<svg version="1.0" xmlns="http://www.w3.org/2000/svg" width="128.000000pt" height="108.000000pt" viewBox="0 0 128.000000 108.000000" preserveAspectRatio="xMidYMid meet">
<metadata>
Created by potrace 1.15, written by Peter Selinger 2001-2017
</metadata>
<g transform="translate(0.000000,108.000000) scale(0.100000,-0.100000)"
fill="#000000" stroke="none">
<path d="M520 1061 c-5 -11 -10 -51 -10 -90 0 -58 4 -75 20 -91 24 -24 38 -25
68 -4 20 14 22 24 22 98 0 50 -5 87 -12 94 -20 20 -76 15 -88 -7z"/>
<path d="M272 1008 c-20 -20 -13 -59 23 -123 37 -66 59 -80 97 -61 38 19 34
61 -12 134 -33 52 -44 62 -68 62 -15 0 -33 -5 -40 -12z"/>
<path d="M782 998 c-27 -35 -72 -121 -72 -141 0 -30 18 -47 50 -47 35 0 42 7
78 71 34 59 40 97 20 117 -16 16 -63 15 -76 0z"/>
<path d="M87 822 c-18 -20 -22 -49 -9 -68 10 -16 127 -84 145 -84 24 0 49 36
45 66 -2 23 -15 36 -68 66 -73 43 -90 46 -113 20z"/>
<path d="M443 810 c-64 -26 -137 -95 -166 -158 -33 -72 -31 -199 5 -268 34
-65 99 -124 136 -124 65 0 71 57 11 113 -48 46 -69 91 -69 149 1 119 100 207
221 196 90 -9 160 -81 175 -179 8 -56 19 -69 55 -69 46 0 63 35 50 104 -12 68
-31 105 -78 157 -81 90 -227 123 -340 79z"/>
<path d="M921 787 c-64 -38 -76 -55 -67 -90 11 -44 49 -46 124 -6 73 39 92 68
67 105 -21 33 -58 30 -124 -9z"/>
<path d="M22 574 c-24 -17 -30 -62 -10 -82 7 -7 44 -12 95 -12 77 0 84 2 99
25 20 30 10 63 -23 76 -39 15 -136 11 -161 -7z"/>
<path d="M543 434 c-3 -9 -4 -86 -1 -173 6 -175 15 -208 71 -241 44 -27 129
-27 172 0 57 35 65 67 65 260 l0 171 -37 -3 -38 -3 -3 -164 c-2 -108 -7 -169
-14 -179 -36 -43 -109 -31 -127 20 -6 17 -11 98 -11 179 l0 149 -35 0 c-23 0
-38 -6 -42 -16z"/>
<path d="M887 443 c-3 -5 36 -104 86 -221 78 -184 93 -213 111 -210 16 2 39
46 108 203 48 110 88 208 88 218 0 13 -8 17 -37 17 l-38 0 -60 -140 c-32 -76
-61 -138 -62 -136 -2 2 -29 63 -61 137 l-58 134 -36 3 c-20 2 -38 -1 -41 -5z"/>
<path d="M132 352 c-81 -47 -94 -91 -40 -126 19 -11 95 20 143 58 33 26 37 72
9 93 -27 19 -43 16 -112 -25z"/>
<path d="M324 232 c-7 -4 -28 -35 -49 -70 -40 -69 -41 -103 -4 -123 34 -18 64
3 103 74 42 74 43 80 16 107 -21 21 -46 25 -66 12z"/>
</g>
</svg>
